<?xml version="1.0" standalone="no"?>
<!DOCTYPE svg PUBLIC "-//W3C//DTD SVG 20010904//EN"
 "http://www.w3.org/TR/2001/REC-SVG-20010904/DTD/svg10.dtd">
<svg version="1.0" xmlns="http://www.w3.org/2000/svg"
 width="433.000000pt" height="433.000000pt" viewBox="0 0 433.000000 433.000000"
 preserveAspectRatio="xMidYMid meet">

<g transform="translate(0.000000,433.000000) scale(0.100000,-0.100000)"
fill="#fffff" stroke="none">
<path d="M1494 3845 c-25 -15 -44 -35 -48 -50 -4 -14 -13 -25 -22 -25 -19 0
-40 -50 -49 -119 -5 -38 -4 -52 4 -47 6 4 11 15 11 25 0 29 26 85 50 106 31
28 91 28 185 0 103 -32 141 -66 150 -134 4 -25 15 -63 27 -84 22 -43 19 -115
-8 -141 -8 -8 -14 -20 -14 -26 0 -6 -4 -9 -8 -6 -5 3 -21 -2 -37 -10 -30 -15
-37 -13 -83 34 -13 14 -27 20 -35 15 -14 -9 -57 -6 -110 8 -28 7 -42 7 -53 -2
-18 -15 -18 -33 1 -26 8 4 17 2 20 -3 6 -9 -46 -50 -65 -50 -6 0 -8 -5 -4 -12
5 -7 -5 -2 -21 11 -28 21 -30 28 -35 107 -3 46 -9 84 -15 84 -12 -1 -8 -142 6
-177 18 -48 11 -59 -63 -103 -411 -244 -711 -665 -808 -1136 -105 -506 17
-1005 350 -1440 l48 -63 1 -128 c1 -132 5 -167 40 -313 12 -47 21 -97 21 -113
l0 -27 198 2 197 3 -4 107 c-2 65 1 108 6 108 18 0 88 -56 100 -81 7 -13 24
-50 37 -82 l25 -58 338 1 c430 1 523 6 523 30 0 17 -38 164 -80 305 -11 38
-20 78 -20 89 0 10 -7 24 -15 30 -9 6 -23 38 -31 70 -8 32 -23 70 -32 84 -11
17 -16 46 -16 96 1 164 13 534 20 579 8 56 19 59 87 23 88 -47 225 -83 367
-96 174 -16 436 -17 474 -1 39 16 26 26 -15 12 -63 -22 -269 -6 -269 21 0 4
16 8 35 8 43 0 46 16 5 25 -16 4 -33 12 -36 18 -4 7 -4 9 1 5 4 -4 13 -4 19 1
6 5 48 11 93 14 71 5 90 11 135 40 29 18 59 41 67 50 7 10 23 17 34 17 14 0
18 3 11 10 -9 9 -125 -42 -159 -70 -7 -5 -14 -8 -16 -6 -5 4 -163 -11 -199
-19 -72 -16 -102 -17 -98 -4 2 8 21 23 41 34 20 11 37 23 37 28 0 26 -109 -16
-157 -61 -17 -15 -31 -21 -42 -16 -9 4 -20 6 -24 5 -5 -1 -39 8 -75 19 -37 11
-100 29 -141 41 -49 14 -82 30 -98 47 -14 15 -43 45 -65 68 -29 30 -40 51 -42
80 -5 48 7 64 48 65 29 1 28 2 -9 9 -22 5 -77 11 -122 15 -71 6 -83 5 -83 -8
0 -8 16 -25 35 -37 19 -12 38 -33 41 -47 4 -15 4 -90 0 -167 -9 -182 -8 -238
5 -366 6 -58 9 -136 6 -175 -3 -38 -6 -117 -6 -175 0 -58 -4 -110 -8 -115 -37
-50 -172 -87 -368 -100 -106 -7 -225 6 -260 29 -11 7 -54 21 -96 30 -41 9
-104 27 -139 39 l-63 23 -2 145 c-1 79 1 216 5 304 4 88 4 239 0 335 -7 162 3
319 25 395 5 17 -3 23 -47 40 -29 11 -56 21 -59 23 -3 1 -15 -29 -27 -69 -15
-48 -35 -86 -62 -119 -41 -49 -70 -113 -67 -150 2 -29 15 -25 15 6 0 14 7 33
17 42 16 16 17 15 10 -18 -6 -29 -5 -33 6 -22 7 6 20 12 29 12 12 0 15 -11 13
-54 0 -29 -6 -63 -12 -74 -15 -29 -14 -40 2 -17 26 35 39 8 32 -64 -3 -36 -8
-87 -10 -113 -2 -27 -7 -53 -10 -59 -4 -5 0 -18 9 -28 15 -17 15 -20 -5 -45
-11 -14 -18 -32 -16 -39 3 -7 6 -5 6 6 1 9 6 17 12 17 7 0 9 -9 5 -22 -3 -13
-6 -34 -6 -48 0 -17 -3 -21 -9 -12 -10 17 -21 -56 -21 -142 0 -73 -14 -126
-40 -158 l-19 -23 -1 23 c0 43 -28 79 -83 106 -29 15 -65 37 -79 49 l-26 22
24 140 c13 77 29 156 36 175 11 34 17 75 38 250 5 47 26 165 45 262 19 98 35
179 35 182 0 3 10 6 23 8 18 3 3 16 -73 66 -52 35 -105 65 -117 68 -13 4 -23
10 -23 15 0 5 -5 8 -12 7 -20 -5 -38 45 -38 107 0 32 7 104 16 160 13 77 22
106 40 126 13 14 24 30 24 35 0 24 110 221 141 255 19 19 48 65 66 101 34 69
74 107 187 180 23 15 266 148 270 148 3 0 8 -16 12 -35 4 -24 -2 -66 -20 -133
-33 -121 -73 -294 -80 -347 l-6 -40 19 40 c10 22 42 72 72 110 37 49 54 80 56
105 1 19 6 53 10 74 7 35 10 38 23 25 17 -17 63 -32 54 -18 -3 5 1 9 8 9 19 0
126 83 160 124 16 20 45 61 63 92 29 47 34 52 40 35 3 -12 12 -21 19 -21 16 0
46 -32 46 -50 0 -7 -3 -11 -6 -7 -3 3 -18 -6 -33 -20 -14 -13 -44 -33 -67 -43
-49 -22 -80 -59 -95 -114 -6 -22 -17 -57 -24 -76 -35 -93 -32 -83 -34 -115 -1
-34 -11 -32 -59 16 -22 23 -45 38 -51 35 -23 -15 -9 -35 34 -52 25 -9 56 -28
70 -42 24 -24 27 -24 58 -9 17 8 44 20 60 26 17 7 27 18 27 31 0 11 23 55 51
97 49 74 89 146 89 159 0 3 -15 20 -32 37 -18 17 -28 27 -21 24 7 -4 14 1 18
13 3 11 10 20 14 20 11 0 146 -95 204 -144 72 -60 104 -135 112 -261 6 -97 6
-102 -24 -165 -56 -118 -121 -234 -149 -270 -36 -44 -53 -76 -46 -83 8 -8
-200 -210 -251 -245 -22 -15 -43 -31 -47 -37 -11 -15 -53 -14 -143 2 -44 8
-89 16 -100 17 -11 2 -36 10 -55 19 -58 28 -100 37 -100 23 0 -7 -11 -27 -25
-46 -29 -39 -31 -50 -10 -50 8 0 15 8 16 18 0 10 3 12 6 4 3 -9 12 -7 33 8 15
11 34 20 40 20 7 0 60 -23 119 -52 128 -63 165 -67 236 -23 26 17 48 35 47 40
0 6 10 24 23 41 13 17 21 34 18 38 -7 6 12 10 37 6 8 -1 25 -14 37 -28 l22
-27 1 72 c0 39 4 74 9 77 9 6 43 -29 58 -59 13 -27 8 -74 -17 -169 -12 -43
-19 -80 -17 -83 5 -4 28 -5 58 -1 9 1 16 6 15 12 -3 37 20 188 44 291 15 66
38 165 50 220 13 55 27 109 32 120 10 22 189 146 216 150 9 1 11 0 5 -2 -15
-5 -17 -19 -4 -27 5 -4 12 0 14 6 8 19 40 -24 78 -102 18 -36 50 -92 73 -125
49 -73 54 -81 102 -170 20 -38 44 -81 54 -95 21 -30 54 -104 63 -142 4 -16 12
-28 18 -28 8 0 8 4 0 14 -9 10 -9 16 -1 21 15 9 17 6 24 -40 4 -22 16 -52 27
-68 11 -15 17 -32 14 -37 -3 -5 0 -7 7 -5 8 3 29 -11 48 -31 l35 -37 -39 23
-39 23 18 -26 c9 -15 20 -27 24 -27 4 0 16 -7 27 -15 18 -14 18 -14 -6 -10
-35 7 -83 61 -126 142 l-36 68 7 -53 c7 -64 -13 -160 -37 -173 -9 -5 -54 -13
-100 -18 l-83 -9 67 1 67 2 -23 -22 c-13 -12 -34 -23 -47 -26 -13 -2 -3 -3 23
0 33 2 56 11 74 28 15 14 30 23 33 19 3 -3 -2 -11 -12 -18 -9 -7 -17 -15 -17
-18 0 -3 33 -10 73 -17 39 -7 83 -17 97 -22 26 -10 115 2 149 20 10 6 22 7 26
3 4 -4 5 2 3 13 -2 13 5 23 20 30 12 5 22 13 22 17 0 5 5 8 11 8 12 0 39 25
39 35 0 4 -12 0 -26 -10 -24 -16 -28 -16 -42 -1 -15 15 -14 16 5 16 12 0 25 5
29 12 4 6 3 8 -3 5 -5 -3 -17 3 -26 14 -9 10 -23 19 -31 19 -7 0 -19 7 -26 15
-20 24 -27 18 -24 -22 3 -34 2 -36 -11 -20 -7 11 -11 26 -8 35 5 11 3 13 -7 7
-9 -6 -11 -4 -5 5 4 7 3 15 -2 19 -6 3 -13 19 -17 35 -7 27 -6 28 10 15 15
-12 15 -10 -2 21 -10 19 -19 54 -19 78 -1 39 0 41 12 20 6 -13 18 -47 24 -76
10 -42 20 -59 51 -84 38 -30 63 -34 35 -6 -8 7 -20 38 -27 68 -13 57 -69 169
-95 190 -8 7 -12 17 -8 23 3 5 1 7 -4 4 -14 -9 -37 19 -27 34 5 8 3 9 -5 5
-14 -9 -43 23 -36 41 2 7 -1 15 -7 19 -7 5 -8 2 -3 -6 6 -9 4 -11 -4 -6 -7 5
-10 14 -7 21 2 7 -9 23 -27 35 -18 12 -41 34 -51 49 -15 21 -11 19 19 -9 43
-40 38 -25 -15 40 -57 71 -81 108 -86 135 -2 13 -9 36 -14 49 -7 18 -5 35 5
58 8 18 14 29 15 23 0 -5 4 -4 9 3 7 11 11 11 24 -2 14 -15 17 -15 31 0 9 8
16 20 16 26 0 6 6 6 15 -2 8 -7 15 -19 15 -27 0 -11 3 -13 13 -5 17 14 45 -8
49 -39 1 -13 -1 -56 -6 -96 -9 -84 2 -128 40 -164 l26 -24 -21 35 c-16 27 -21
51 -21 110 0 96 11 115 33 58 10 -24 17 -50 17 -58 0 -9 8 -20 18 -26 24 -15
99 -167 118 -239 21 -80 29 -202 16 -246 -14 -51 2 -70 16 -21 32 106 2 258
-88 447 -108 227 -122 269 -98 293 19 19 26 14 31 -20 l4 -33 1 37 c1 20 6 39
10 42 12 7 29 -7 35 -29 2 -11 5 -1 6 23 1 47 24 59 37 20 3 -13 14 -31 23
-41 8 -11 16 -26 16 -35 0 -10 6 -16 13 -14 14 2 36 -41 53 -108 l12 -45 10
39 c7 29 6 45 -3 59 -11 18 -10 19 12 14 22 -6 21 -5 -6 19 -15 14 -43 47 -62
74 l-33 48 37 -10 c34 -9 91 -42 135 -78 10 -8 34 -48 54 -87 20 -40 42 -73
50 -73 7 0 13 -4 13 -8 0 -5 9 -18 20 -30 11 -12 19 -25 18 -29 -2 -4 7 -28
18 -53 12 -25 24 -53 28 -63 6 -18 26 -15 26 4 0 6 -4 7 -10 4 -6 -3 -7 1 -4
10 4 9 7 15 8 13 1 -2 10 -15 19 -31 10 -15 14 -27 10 -26 -18 3 -33 -2 -33
-11 0 -5 7 -6 17 -3 9 4 14 2 10 -3 -3 -6 -1 -16 5 -24 8 -12 9 -12 4 2 -9 30
10 28 40 -4 l29 -31 -28 18 c-21 13 -26 14 -22 3 7 -17 -32 -55 -82 -80 -21
-10 -28 -15 -15 -12 13 3 30 0 39 -8 29 -24 54 -100 56 -171 l2 -69 -45 -40
c-25 -22 -82 -66 -127 -98 -45 -31 -80 -60 -76 -64 3 -3 0 -6 -7 -6 -7 0 -11
-2 -8 -5 3 -3 18 1 34 10 62 32 74 10 17 -31 -53 -39 -61 -46 -41 -39 16 6 83
-29 104 -56 7 -8 15 -30 19 -49 l7 -35 -34 33 c-19 17 -43 32 -53 31 -20 0
-20 -1 -1 -8 11 -4 21 -16 22 -27 1 -10 5 -36 8 -56 7 -45 -6 -56 -34 -28 -11
11 -28 20 -37 19 -10 0 -13 -3 -7 -5 9 -4 9 -13 1 -35 -9 -22 -9 -34 1 -49 6
-11 12 -35 12 -53 0 -24 10 -45 37 -76 35 -41 36 -45 24 -77 -7 -19 -17 -64
-22 -100 -5 -36 -18 -87 -28 -112 -14 -34 -21 -82 -25 -173 -3 -69 -10 -148
-16 -177 -20 -90 -14 -92 70 -25 41 33 116 102 165 154 659 686 638 1772 -46
2434 -361 350 -847 526 -1336 486 -75 -7 -140 -14 -144 -17 -4 -2 -10 0 -14 6
-4 7 -12 7 -25 0 -22 -12 -22 -8 0 134 9 62 9 85 -1 110 -33 81 -99 129 -224
161 -77 20 -83 19 -131 -10z m369 -489 c3 -8 -1 -22 -8 -33 -12 -15 -16 -15
-24 -4 -5 7 -11 9 -13 5 -3 -5 -3 -3 -1 4 1 8 3 20 3 28 0 18 36 18 43 0z
m792 -47 c27 -7 56 -28 88 -62 53 -58 117 -175 117 -216 -1 -19 -11 -6 -40 54
-79 158 -130 207 -239 226 -97 18 -184 -17 -236 -93 -35 -52 -65 -161 -65
-238 0 -38 -4 -71 -8 -74 -14 -8 -72 26 -72 43 0 50 70 235 113 296 17 24 18
27 3 16 -25 -21 -90 -154 -116 -239 -20 -65 -24 -71 -41 -62 -24 13 -24 16 2
92 37 109 102 209 152 234 77 40 244 51 342 23z m-925 -15 c0 -3 -7 -12 -16
-21 -12 -12 -18 -13 -27 -4 -9 9 -8 14 3 21 17 11 40 13 40 4z m888 -29 c-3
-3 -9 2 -12 12 -6 14 -5 15 5 6 7 -7 10 -15 7 -18z m-1128 -90 c0 -19 -14 -19
-32 -1 -12 11 -13 25 -9 81 1 15 41 -63 41 -80z m90 76 c0 -14 -29 -22 -56
-15 -38 10 -28 24 16 24 22 0 40 -4 40 -9z m64 -10 c9 -14 -15 -71 -34 -81
-13 -7 -21 -5 -30 5 -12 15 -9 25 24 62 21 25 32 28 40 14z m992 -9 c59 -32
105 -82 133 -145 41 -90 45 -122 20 -151 -20 -23 -23 -23 -55 -10 -18 8 -41
14 -50 14 -15 0 -14 -4 6 -25 13 -14 22 -27 19 -29 -2 -2 -29 -6 -59 -9 -39
-4 -48 -3 -32 4 13 5 21 13 18 18 -3 5 2 12 11 15 15 6 15 8 3 16 -21 13 -90
12 -90 -1 0 -5 -5 -7 -12 -3 -7 5 -5 11 7 21 17 12 17 13 2 13 -9 0 -17 -4
-17 -9 0 -6 -15 -24 -32 -40 -51 -47 -98 -37 -98 20 0 23 5 28 38 34 20 3 47
13 60 21 12 8 22 12 22 8 0 -4 6 -1 14 5 12 10 12 19 4 44 -15 42 -26 48 -70
41 -21 -3 -38 -4 -38 -2 0 21 49 95 83 127 46 45 67 49 113 23z m-146 -208 c0
-2 -7 -4 -15 -4 -8 0 -15 4 -15 10 0 5 7 7 15 4 8 -4 15 -8 15 -10z m-637 -51
c2 -12 1 -21 -3 -18 -3 2 -23 -32 -44 -76 -45 -98 -118 -179 -160 -179 -22 0
-27 4 -22 16 3 9 6 22 6 29 0 8 10 24 23 36 12 12 16 19 10 15 -18 -10 -15 13
5 51 9 17 28 52 40 78 27 51 62 75 109 73 24 -2 32 -7 36 -25z m983 -59 c-3
-25 -13 -52 -21 -60 -8 -9 -15 -20 -15 -26 0 -5 -7 -7 -16 -4 -8 3 -12 2 -9
-4 6 -9 -8 -15 -29 -11 -5 1 -6 -10 -4 -24 4 -19 -1 -30 -21 -44 -30 -22 -109
-36 -140 -26 -30 9 -10 41 31 50 45 9 77 31 88 60 5 13 27 33 50 44 22 10 38
15 34 10 -3 -5 -2 -14 1 -19 9 -15 35 7 35 29 0 14 -2 14 -10 1 -6 -9 -10 -10
-10 -3 0 6 5 15 10 18 6 3 10 17 10 31 0 13 5 24 11 24 8 0 10 -15 5 -46z
m-286 -38 c0 -3 -4 -8 -10 -11 -5 -3 -10 -1 -10 4 0 6 5 11 10 11 6 0 10 -2
10 -4z m130 -45 c-15 -29 -130 -38 -130 -10 0 9 9 12 85 27 48 11 58 7 45 -17z
m-180 -46 c0 -23 -16 -26 -35 -5 -22 24 -12 44 16 30 10 -6 19 -17 19 -25z
m330 -267 c0 -19 -2 -20 -10 -8 -13 19 -13 30 0 30 6 0 10 -10 10 -22z m-142
-371 c21 -38 21 -40 2 -17 -28 34 -42 60 -33 60 4 0 18 -19 31 -43z m120 -104
c33 -46 27 -52 -8 -7 -16 21 -42 55 -56 74 l-27 35 34 -35 c19 -19 45 -49 57
-67z m-164 16 c-2 -4 4 -12 13 -18 10 -6 15 -11 10 -11 -4 0 0 -11 9 -25 26
-40 10 -40 -20 0 -15 19 -23 35 -19 35 4 0 1 5 -7 10 -12 8 -12 10 -1 10 11 0
11 3 1 15 -7 8 -15 13 -19 11 -4 -3 -7 5 -7 16 0 18 3 17 23 -8 12 -15 20 -31
17 -35z m87 24 c13 -16 12 -17 -3 -4 -17 13 -22 21 -14 21 2 0 10 -8 17 -17z
m-12 -68 c0 -5 -4 -3 -9 5 -5 8 -9 22 -9 30 0 16 17 -16 18 -35z m60 -10 c0
-5 -6 1 -14 15 -8 14 -14 30 -14 35 0 6 6 -1 14 -15 8 -14 14 -29 14 -35z m17
-63 c10 -20 19 -40 21 -44 2 -5 2 -8 -1 -8 -3 0 -17 23 -32 51 -14 28 -21 48
-15 45 6 -4 18 -24 27 -44z m229 -292 c3 -5 -1 -10 -10 -10 -9 0 -13 5 -10 10
3 6 8 10 10 10 2 0 7 -4 10 -10z m-34 -37 c13 -17 13 -17 -6 -3 -18 14 -19 14
-7 -2 8 -9 20 -14 28 -11 22 8 16 -13 -8 -29 -31 -20 -60 -30 -53 -19 3 5 -4
12 -15 16 -11 4 -18 11 -14 16 3 6 0 17 -8 27 -11 14 -9 14 16 -2 24 -15 28
-16 23 -3 -4 10 0 17 11 20 9 3 18 5 18 6 1 0 8 -7 15 -16z m-142 -43 c10 -5
21 -17 25 -26 6 -17 -4 -17 -48 2 -14 5 -17 4 -12 -4 4 -7 1 -12 -8 -12 -20 0
-20 6 2 29 21 24 19 23 41 11z m72 -27 c13 -16 12 -17 -3 -4 -17 13 -22 21
-14 21 2 0 10 -8 17 -17z m-221 -233 c0 -5 -4 -10 -10 -10 -5 0 -10 5 -10 10
0 6 5 10 10 10 6 0 10 -4 10 -10z"/>
<path d="M2633 3119 c-40 -12 -49 -26 -30 -47 9 -9 15 -21 15 -27 -1 -16 49
-36 74 -30 34 9 72 41 64 54 -4 6 -18 11 -32 11 -14 0 -22 -4 -19 -10 9 -15
-34 -12 -50 4 -12 11 -10 15 10 26 23 12 36 11 80 -5 18 -7 18 -6 5 8 -20 20
-77 28 -117 16z"/>
<path d="M1731 2874 c-37 -26 -36 -30 3 -13 14 7 27 18 30 25 6 17 9 18 -33
-12z"/>
<path d="M1391 3583 c-24 -21 -33 -61 -17 -81 48 -59 64 -64 122 -33 32 17 64
58 64 81 0 13 -88 50 -119 50 -16 0 -38 -8 -50 -17z m69 -39 c0 -2 -7 -4 -15
-4 -8 0 -15 4 -15 10 0 5 7 7 15 4 8 -4 15 -8 15 -10z"/>
<path d="M1576 3551 c-3 -5 -3 -30 0 -55 5 -35 10 -44 19 -36 8 7 17 4 30 -10
27 -29 92 -27 128 5 35 31 32 53 -12 82 -26 18 -48 23 -97 23 -35 0 -65 -4
-68 -9z m120 -40 c-4 -5 0 -12 6 -14 7 -3 3 -6 -9 -6 -27 -1 -39 16 -16 22 10
3 19 5 21 6 2 0 1 -3 -2 -8z m-34 -53 c-9 -9 -15 -9 -24 0 -9 9 -7 12 12 12
19 0 21 -3 12 -12z"/>
<path d="M1826 3127 c3 -10 9 -15 12 -12 3 3 0 11 -7 18 -10 9 -11 8 -5 -6z"/>
<path d="M1143 2828 c-26 -33 -110 -285 -98 -296 2 -3 -10 -12 -27 -21 -38
-20 -51 -50 -34 -83 19 -35 16 -55 -12 -80 -14 -13 -22 -17 -17 -9 5 9 3 12
-5 9 -22 -7 -29 -42 -12 -58 14 -13 15 -12 9 3 -4 11 -3 16 3 12 6 -3 10 -18
10 -33 1 -27 1 -27 15 6 18 41 82 100 117 108 26 5 28 10 28 51 0 46 -29 99
-46 85 -5 -4 -1 2 9 14 9 11 17 36 17 56 0 36 38 159 60 195 16 25 0 63 -17
41z m-128 -372 c7 3 16 1 20 -5 3 -7 0 -8 -9 -5 -9 3 -16 1 -16 -5 0 -6 7 -11
15 -11 8 0 15 -4 15 -10 0 -5 8 -10 18 -11 14 0 14 -2 -3 -9 -29 -12 -35 -12
-35 4 0 7 -7 19 -15 26 -8 7 -15 20 -14 29 0 9 3 11 5 4 3 -7 11 -10 19 -7z"/>
<path d="M1497 2517 c-3 -8 1 -14 8 -14 7 0 11 6 8 14 -3 7 -6 13 -8 13 -2 0
-5 -6 -8 -13z"/>
<path d="M3000 2430 c0 -5 5 -10 11 -10 5 0 7 5 4 10 -3 6 -8 10 -11 10 -2 0
-4 -4 -4 -10z"/>
<path d="M3030 2410 c0 -5 5 -10 11 -10 5 0 7 5 4 10 -3 6 -8 10 -11 10 -2 0
-4 -4 -4 -10z"/>
<path d="M969 2363 c-13 -16 -12 -17 4 -4 9 7 17 15 17 17 0 8 -8 3 -21 -13z"/>
<path d="M2881 2264 c0 -11 3 -14 6 -6 3 7 2 16 -1 19 -3 4 -6 -2 -5 -13z"/>
<path d="M3074 2272 c-6 -4 -15 -18 -19 -32 -8 -28 -6 -27 18 13 19 29 19 31
1 19z"/>
<path d="M970 2206 c0 -3 9 -10 20 -16 11 -6 20 -8 20 -6 0 3 -9 10 -20 16
-11 6 -20 8 -20 6z"/>
<path d="M3052 2150 c0 -14 2 -19 5 -12 2 6 2 18 0 25 -3 6 -5 1 -5 -13z"/>
<path d="M3066 2065 c2 -33 9 -64 15 -70 10 -10 5 32 -11 95 -8 29 -9 24 -4
-25z"/>
<path d="M2950 1900 c6 -11 13 -20 16 -20 2 0 0 9 -6 20 -6 11 -13 20 -16 20
-2 0 0 -9 6 -20z"/>
<path d="M3255 1831 c-8 -17 -38 -49 -66 -73 -29 -24 -64 -54 -78 -68 -15 -14
-17 -16 -4 -6 32 27 40 12 10 -18 -14 -14 -22 -28 -18 -30 9 -6 86 67 116 110
11 15 32 42 48 60 28 32 35 54 17 54 -5 0 -16 -13 -25 -29z"/>
<path d="M1008 1843 c7 -3 16 -2 19 1 4 3 -2 6 -13 5 -11 0 -14 -3 -6 -6z"/>
<path d="M1200 1821 c0 -6 4 -12 8 -15 5 -3 9 1 9 9 0 8 -4 15 -9 15 -4 0 -8
-4 -8 -9z"/>
<path d="M1245 1799 c-4 -6 -5 -12 -2 -15 2 -3 7 2 10 11 7 17 1 20 -8 4z"/>
<path d="M2991 1794 c0 -11 3 -14 6 -6 3 7 2 16 -1 19 -3 4 -6 -2 -5 -13z"/>
<path d="M2910 1736 c0 -2 7 -6 15 -10 8 -3 15 -1 15 4 0 6 -7 10 -15 10 -8 0
-15 -2 -15 -4z"/>
<path d="M1966 1693 c-6 -14 -5 -15 5 -6 7 7 10 15 7 18 -3 3 -9 -2 -12 -12z"/>
<path d="M2386 1655 c-5 -18 -12 -25 -21 -21 -19 7 -19 -5 -1 -29 9 -13 28
-20 57 -21 l44 -2 -34 14 c-24 10 -31 17 -24 27 6 8 6 20 -2 35 l-13 23 -6
-26z"/>
<path d="M2535 1470 c-30 -4 -35 -7 -22 -13 10 -4 28 -7 40 -7 12 0 43 -7 68
-16 43 -16 47 -16 73 1 l27 18 -30 13 c-29 12 -79 14 -156 4z"/>
<path d="M2760 1124 c-42 -15 -53 -21 -30 -18 19 3 50 8 68 11 18 3 32 11 32
19 0 8 -1 14 -2 13 -2 0 -32 -11 -68 -25z"/>
<path d="M963 1099 c-2 -23 3 -25 10 -4 4 8 3 16 -1 19 -4 3 -9 -4 -9 -15z"/>
<path d="M2658 1093 c6 -2 18 -2 25 0 6 3 1 5 -13 5 -14 0 -19 -2 -12 -5z"/>
<path d="M2618 1083 c7 -3 16 -2 19 1 4 3 -2 6 -13 5 -11 0 -14 -3 -6 -6z"/>
<path d="M2568 1073 c6 -2 18 -2 25 0 6 3 1 5 -13 5 -14 0 -19 -2 -12 -5z"/>
<path d="M2508 1063 c6 -2 18 -2 25 0 6 3 1 5 -13 5 -14 0 -19 -2 -12 -5z"/>
<path d="M2428 1053 c12 -2 30 -2 40 0 9 3 -1 5 -23 4 -22 0 -30 -2 -17 -4z"/>
<path d="M2258 1043 c23 -2 59 -2 80 0 20 2 1 4 -43 4 -44 0 -61 -2 -37 -4z"/>
<path d="M2180 781 c0 -5 7 -12 16 -15 14 -5 15 -4 4 9 -14 17 -20 19 -20 6z"/>
<path d="M2321 400 c14 -31 19 -36 19 -24 0 6 -7 19 -16 30 -14 18 -14 18 -3
-6z"/>
</g>
</svg>
